# Blender v2.91.0 OBJ File: 'cuba.blend'
# www.blender.org
mtllib cuba.mtl
o Cube
v 1.000000 1.000000 -1.000000
v 1.000000 -1.000000 -1.000000
v 1.000000 1.000000 1.000000
v 1.000000 -1.000000 1.000000
v -1.000000 1.000000 -1.000000
v -1.000000 -1.000000 -1.000000
v -1.000000 1.000000 1.000000
v -1.000000 -1.000000 1.000000
vt 0.996007 0.492231
vt 0.996007 0.742188
vt 0.746050 0.742188
vt 0.746050 0.492231
vt 0.496094 0.492231
vt 0.496094 0.742188
vt 0.496094 0.992144
vt 0.246137 0.992144
vt 0.246137 0.742188
vt 0.246137 0.492231
vt 0.246137 0.242274
vt 0.496094 0.242274
vt -0.003820 0.742188
vt -0.003820 0.492231
vn 0.0000 1.0000 0.0000
vn 0.0000 0.0000 1.0000
vn -1.0000 0.0000 0.0000
vn 0.0000 -1.0000 0.0000
vn 1.0000 0.0000 0.0000
vn 0.0000 0.0000 -1.0000
usemtl Material
s off
f 1/1/1 5/2/1 7/3/1 3/4/1
f 4/5/2 3/4/2 7/3/2 8/6/2
f 8/6/3 7/7/3 5/8/3 6/9/3
f 6/9/4 2/10/4 4/5/4 8/6/4
f 2/10/5 1/11/5 3/12/5 4/5/5
f 6/9/6 5/13/6 1/14/6 2/10/6
