# Blender v2.91.0 OBJ File: 'nave.blend'
# www.blender.org
mtllib nave.mtl
o Cilindro
v -0.210140 0.580014 -0.801979
v -0.210140 1.617628 -1.153448
v 0.248441 0.580014 -0.612028
v 0.496967 1.617628 -0.860555
v 0.438391 0.580014 -0.153448
v 0.789860 1.617628 -0.153448
v 0.248441 0.580014 0.305133
v 0.496967 1.617628 0.553659
v -0.210140 0.580014 0.495083
v -0.210140 1.617628 0.846552
v -0.668721 0.580014 0.305133
v -0.917247 1.617628 0.553659
v -0.858671 0.580014 -0.153448
v -1.210140 1.617628 -0.153448
v -0.668721 0.580014 -0.612028
v -0.917247 1.617628 -0.860554
v 0.496967 2.389358 -0.860555
v -0.210140 2.389358 -1.153448
v 0.789860 2.389358 -0.153448
v 0.496967 2.389358 0.553659
v -0.210140 2.389358 0.846552
v -0.917247 2.389358 0.553659
v -1.210140 2.389358 -0.153448
v -0.917247 2.389358 -0.860554
v 0.286003 2.972151 -0.649590
v -0.210140 2.972151 -0.855099
v 0.491511 2.972151 -0.153448
v 0.286003 2.972151 0.342695
v -0.210140 2.972151 0.548204
v -0.706283 2.972151 0.342695
v -0.911792 2.972151 -0.153448
v -0.706283 2.972151 -0.649590
v 0.113542 3.342762 -0.477130
v -0.210140 3.342762 -0.611203
v 0.247615 3.342762 -0.153448
v 0.113542 3.342762 0.170234
v -0.210140 3.342762 0.304308
v -0.533822 3.342762 0.170234
v -0.667896 3.342762 -0.153448
v -0.533822 3.342762 -0.477130
v -0.146152 3.620158 -0.217436
v -0.210140 3.620158 -0.243941
v -0.119647 3.620158 -0.153448
v -0.146152 3.620158 -0.089459
v -0.210140 3.620158 -0.062954
v -0.274129 3.620158 -0.089459
v -0.300634 3.620158 -0.153448
v -0.274129 3.620158 -0.217436
vt 0.973111 0.558667
vt 1.000000 0.365491
vt 0.846990 0.365491
vt 0.873879 0.558667
vt 0.738796 0.346878
vt 0.803712 0.546596
vt 0.673880 0.546596
vt 0.630602 0.365491
vt 0.603713 0.558667
vt 0.477592 0.365491
vt 0.504481 0.558667
vt 0.369398 0.346878
vt 0.434314 0.546596
vt 0.304482 0.546596
vt 0.261204 0.365491
vt 0.234315 0.558667
vt 0.369398 0.194896
vt 0.261204 0.213510
vt 0.108194 0.365491
vt 0.135083 0.558667
vt 0.000000 0.346878
vt 0.064916 0.546596
vt 0.000000 0.628834
vt 0.000000 0.728066
vt 0.070167 0.798233
vt 0.169399 0.798233
vt 0.239566 0.728066
vt 0.239566 0.628834
vt 0.169399 0.558667
vt 0.070167 0.558667
vt 0.477592 0.213510
vt 0.500417 0.089257
vt 0.424503 0.076197
vt 0.630602 0.213510
vt 0.108194 0.213510
vt 0.846990 0.213510
vt 0.738796 0.194896
vt 0.000000 0.194896
vt 1.000000 0.213510
vt 0.131019 0.089257
vt 0.238379 0.089257
vt 0.219720 0.008520
vt 0.149679 0.008520
vt 0.683691 0.076197
vt 0.607777 0.089257
vt 0.977175 0.089257
vt 0.869815 0.089257
vt 0.055105 0.076197
vt 0.314293 0.076197
vt 0.793901 0.076197
vt 0.289093 0.727761
vt 0.359134 0.727761
vt 0.331036 0.659928
vt 0.317190 0.659928
vt 0.519077 0.008520
vt 0.469550 0.000000
vt 0.638644 0.000000
vt 0.589118 0.008520
vt 0.958516 0.008520
vt 0.888475 0.008520
vt 0.100152 0.000000
vt 0.269246 0.000000
vt 0.838948 0.000000
vt 0.317190 0.626500
vt 0.307399 0.636291
vt 0.307399 0.650137
vt 0.340827 0.650137
vt 0.340827 0.636291
vt 0.331036 0.626500
vt 0.408660 0.678235
vt 0.408660 0.608194
vt 0.359134 0.558667
vt 0.289093 0.558667
vt 0.239566 0.678235
vt 0.239566 0.608194
vn 0.3652 -0.2987 -0.8817
vn 0.8817 -0.2987 -0.3652
vn 0.8817 -0.2987 0.3652
vn 0.3652 -0.2987 0.8817
vn -0.3652 -0.2987 0.8817
vn -0.8817 -0.2987 0.3652
vn -0.9239 0.0000 0.3827
vn -0.8817 -0.2987 -0.3652
vn -0.3652 -0.2987 -0.8817
vn 0.0000 -1.0000 0.0000
vn -0.3459 0.4276 0.8352
vn 0.3827 0.0000 0.9239
vn -0.9239 0.0000 -0.3827
vn 0.9239 0.0000 -0.3827
vn -0.3827 0.0000 0.9239
vn -0.3827 0.0000 -0.9239
vn 0.3827 0.0000 -0.9239
vn 0.9239 0.0000 0.3827
vn -0.7894 0.5195 -0.3270
vn 0.8352 0.4276 0.3459
vn 0.3459 0.4276 -0.8352
vn -0.3459 0.4276 -0.8352
vn -0.8352 0.4276 0.3459
vn 0.3459 0.4276 0.8352
vn 0.8352 0.4276 -0.3459
vn -0.8352 0.4276 -0.3459
vn -0.5848 0.7742 0.2422
vn -0.3270 0.5195 0.7894
vn 0.7894 0.5195 0.3270
vn 0.3270 0.5195 -0.7894
vn -0.3270 0.5195 -0.7894
vn -0.7894 0.5195 0.3270
vn 0.3270 0.5195 0.7894
vn 0.7894 0.5195 -0.3270
vn 0.0000 1.0000 0.0000
vn 0.2422 0.7742 0.5848
vn 0.5848 0.7742 -0.2422
vn -0.5848 0.7742 -0.2422
vn -0.2422 0.7742 0.5848
vn 0.5848 0.7742 0.2422
vn 0.2422 0.7742 -0.5848
vn -0.2422 0.7742 -0.5848
usemtl Material.001
s off
f 1/1/1 2/2/1 4/3/1 3/4/1
f 3/4/2 4/3/2 6/5/2 5/6/2
f 5/7/3 6/5/3 8/8/3 7/9/3
f 7/9/4 8/8/4 10/10/4 9/11/4
f 9/11/5 10/10/5 12/12/5 11/13/5
f 11/14/6 12/12/6 14/15/6 13/16/6
f 14/15/7 12/12/7 22/17/7 23/18/7
f 13/16/8 14/15/8 16/19/8 15/20/8
f 15/20/9 16/19/9 2/21/9 1/22/9
f 1/23/10 3/24/10 5/25/10 7/26/10 9/27/10 11/28/10 13/29/10 15/30/10
f 22/17/11 21/31/11 29/32/11 30/33/11
f 10/10/12 8/8/12 20/34/12 21/31/12
f 16/19/13 14/15/13 23/18/13 24/35/13
f 6/5/14 4/3/14 17/36/14 19/37/14
f 12/12/15 10/10/15 21/31/15 22/17/15
f 2/21/16 16/19/16 24/35/16 18/38/16
f 4/3/17 2/2/17 18/39/17 17/36/17
f 8/8/18 6/5/18 19/37/18 20/34/18
f 32/40/19 31/41/19 39/42/19 40/43/19
f 20/34/20 19/37/20 27/44/20 28/45/20
f 17/36/21 18/39/21 26/46/21 25/47/21
f 18/38/22 24/35/22 32/40/22 26/48/22
f 23/18/23 22/17/23 30/49/23 31/41/23
f 21/31/24 20/34/24 28/45/24 29/32/24
f 19/37/25 17/36/25 25/47/25 27/50/25
f 24/35/26 23/18/26 31/41/26 32/40/26
f 39/51/27 38/52/27 46/53/27 47/54/27
f 30/33/28 29/32/28 37/55/28 38/56/28
f 28/45/29 27/44/29 35/57/29 36/58/29
f 25/47/30 26/46/30 34/59/30 33/60/30
f 26/48/31 32/40/31 40/43/31 34/61/31
f 31/41/32 30/49/32 38/62/32 39/42/32
f 29/32/33 28/45/33 36/58/33 37/55/33
f 27/50/34 25/47/34 33/60/34 35/63/34
f 41/64/35 42/65/35 48/66/35 47/54/35 46/53/35 45/67/35 44/68/35 43/69/35
f 37/70/36 36/71/36 44/68/36 45/67/36
f 35/72/37 33/73/37 41/64/37 43/69/37
f 40/74/38 39/51/38 47/54/38 48/66/38
f 38/52/39 37/70/39 45/67/39 46/53/39
f 36/71/40 35/72/40 43/69/40 44/68/40
f 33/73/41 34/75/41 42/65/41 41/64/41
f 34/75/42 40/74/42 48/66/42 42/65/42
o Cubo.001
v -0.089869 0.237089 -1.007504
v -0.337125 0.237089 -1.010933
v -0.077089 -0.199717 -1.239313
v -0.324346 -0.199717 -1.242742
v -0.089869 0.659234 -0.826660
v -0.089869 1.031704 -0.574849
v -0.089869 1.257905 -0.488474
v -0.089869 1.475353 -0.428121
v -0.089869 1.615410 -0.428121
v -0.337125 1.615410 -0.431551
v -0.337125 1.475353 -0.431551
v -0.337125 1.257905 -0.491903
v -0.337125 1.031704 -0.578278
v -0.337125 0.659233 -0.830090
v -0.324346 1.534139 -1.121913
v -0.324346 1.200603 -1.292361
v -0.324346 0.795443 -1.352952
v -0.324346 0.442439 -1.352952
v -0.324346 0.089436 -1.352952
v -0.077089 1.534139 -1.118483
v -0.077089 1.200603 -1.288932
v -0.077089 0.795443 -1.349522
v -0.077089 0.442439 -1.349522
v -0.077089 0.089436 -1.349522
vt 0.125000 0.500000
vt 0.375000 0.500000
vt 0.375000 0.750000
vt 0.125000 0.750000
vt 0.416667 0.750000
vt 0.416667 1.000000
vt 0.375000 1.000000
vt 0.458333 0.750000
vt 0.458333 1.000000
vt 0.500000 0.750000
vt 0.500000 1.000000
vt 0.541667 0.750000
vt 0.541667 1.000000
vt 0.583333 0.750000
vt 0.583333 1.000000
vt 0.416667 0.500000
vt 0.458333 0.500000
vt 0.500000 0.500000
vt 0.541667 0.500000
vt 0.583333 0.500000
vt 0.375000 0.250000
vt 0.416667 0.250000
vt 0.458333 0.250000
vt 0.500000 0.250000
vt 0.541667 0.250000
vt 0.583333 0.250000
vt 0.375000 0.000000
vt 0.416667 0.000000
vt 0.458333 0.000000
vn -0.0122 -0.4690 0.8831
vn 0.9992 -0.0039 0.0390
vn 0.9995 -0.0099 0.0285
vn 0.9998 -0.0026 0.0173
vn 0.9999 -0.0031 0.0162
vn 0.9998 -0.0065 0.0180
vn 0.0130 -0.3561 -0.9343
vn 0.0139 0.0000 -0.9999
vn 0.0137 0.1479 -0.9889
vn 0.0123 0.4550 -0.8904
vn -0.9992 0.0039 -0.0390
vn -0.9995 0.0099 -0.0285
vn -0.9998 0.0026 -0.0173
vn -0.9999 0.0031 -0.0162
vn -0.9998 0.0065 -0.0180
vn -0.0127 -0.3937 0.9191
vn -0.0115 -0.5600 0.8284
usemtl None
s off
f 50/76/43 52/77/43 51/78/43 49/79/43
f 51/78/44 72/80/44 53/81/44 49/82/44
f 72/80/45 71/83/45 54/84/45 53/81/45
f 71/83/46 70/85/46 55/86/46 54/84/46
f 70/85/47 69/87/47 56/88/47 55/86/47
f 69/87/48 68/89/48 57/90/48 56/88/48
f 52/77/49 67/91/49 72/80/49 51/78/49
f 67/91/50 66/92/50 71/83/50 72/80/50
f 66/92/50 65/93/50 70/85/50 71/83/50
f 65/93/51 64/94/51 69/87/51 70/85/51
f 64/94/52 63/95/52 68/89/52 69/87/52
f 50/96/53 62/97/53 67/91/53 52/77/53
f 62/97/54 61/98/54 66/92/54 67/91/54
f 61/98/55 60/99/55 65/93/55 66/92/55
f 60/99/56 59/100/56 64/94/56 65/93/56
f 59/100/57 58/101/57 63/95/57 64/94/57
f 49/102/58 53/103/58 62/97/58 50/96/58
f 53/103/59 54/104/59 61/98/59 62/97/59
o Cubo.004
v -0.310995 0.237089 0.681736
v -0.063729 0.237089 0.684420
v -0.323075 -0.199717 0.913583
v -0.075809 -0.199717 0.916266
v -0.311540 0.659234 0.500893
v -0.312300 1.031704 0.249083
v -0.312561 1.257905 0.162708
v -0.312743 1.475353 0.102356
v -0.312743 1.615410 0.102356
v -0.065477 1.615410 0.105039
v -0.065477 1.475353 0.105039
v -0.065295 1.257905 0.165392
v -0.065034 1.031704 0.251767
v -0.064275 0.659233 0.503577
v -0.076174 1.534139 0.795437
v -0.075659 1.200603 0.965885
v -0.075476 0.795443 1.026475
v -0.075476 0.442439 1.026475
v -0.075476 0.089436 1.026475
v -0.323439 1.534139 0.792754
v -0.322925 1.200603 0.963201
v -0.322742 0.795443 1.023792
v -0.322742 0.442439 1.023792
v -0.322742 0.089436 1.023792
vt 0.125000 0.500000
vt 0.375000 0.500000
vt 0.375000 0.750000
vt 0.125000 0.750000
vt 0.416667 0.750000
vt 0.416667 1.000000
vt 0.375000 1.000000
vt 0.458333 0.750000
vt 0.458333 1.000000
vt 0.500000 0.750000
vt 0.500000 1.000000
vt 0.541667 0.750000
vt 0.541667 1.000000
vt 0.583333 0.750000
vt 0.583333 1.000000
vt 0.416667 0.500000
vt 0.458333 0.500000
vt 0.500000 0.500000
vt 0.541667 0.500000
vt 0.583333 0.500000
vt 0.375000 0.250000
vt 0.416667 0.250000
vt 0.458333 0.250000
vt 0.500000 0.250000
vt 0.541667 0.250000
vt 0.583333 0.250000
vt 0.375000 0.000000
vt 0.416667 0.000000
vt 0.458333 0.000000
vn 0.0096 -0.4690 -0.8831
vn -0.9993 -0.0039 -0.0360
vn -0.9996 -0.0099 -0.0255
vn -0.9999 -0.0026 -0.0143
vn -0.9999 -0.0031 -0.0132
vn -0.9999 -0.0065 -0.0149
vn -0.0101 -0.3561 0.9344
vn -0.0109 0.0000 0.9999
vn -0.0107 0.1479 0.9889
vn -0.0097 0.4550 0.8904
vn 0.9993 0.0039 0.0360
vn 0.9996 0.0099 0.0255
vn 0.9999 0.0026 0.0143
vn 0.9999 0.0031 0.0132
vn 0.9999 0.0065 0.0149
vn 0.0100 -0.3937 -0.9192
vn 0.0090 -0.5600 -0.8284
usemtl None
s off
f 74/105/60 76/106/60 75/107/60 73/108/60
f 75/107/61 96/109/61 77/110/61 73/111/61
f 96/109/62 95/112/62 78/113/62 77/110/62
f 95/112/63 94/114/63 79/115/63 78/113/63
f 94/114/64 93/116/64 80/117/64 79/115/64
f 93/116/65 92/118/65 81/119/65 80/117/65
f 76/106/66 91/120/66 96/109/66 75/107/66
f 91/120/67 90/121/67 95/112/67 96/109/67
f 90/121/67 89/122/67 94/114/67 95/112/67
f 89/122/68 88/123/68 93/116/68 94/114/68
f 88/123/69 87/124/69 92/118/69 93/116/69
f 74/125/70 86/126/70 91/120/70 76/106/70
f 86/126/71 85/127/71 90/121/71 91/120/71
f 85/127/72 84/128/72 89/122/72 90/121/72
f 84/128/73 83/129/73 88/123/73 89/122/73
f 83/129/74 82/130/74 87/124/74 88/123/74
f 73/131/75 77/132/75 86/126/75 74/125/75
f 77/132/76 78/133/76 85/127/76 86/126/76
o Cubo.005
v -1.045517 0.237089 -0.215210
v -1.048946 0.237089 0.032046
v -1.277326 -0.199717 -0.227990
v -1.280755 -0.199717 0.019266
v -0.864673 0.659234 -0.215210
v -0.612862 1.031704 -0.215210
v -0.526487 1.257905 -0.215210
v -0.466134 1.475353 -0.215210
v -0.466134 1.615410 -0.215210
v -0.469564 1.615410 0.032046
v -0.469564 1.475353 0.032046
v -0.529916 1.257905 0.032046
v -0.616291 1.031704 0.032046
v -0.868103 0.659233 0.032046
v -1.159925 1.534139 0.019266
v -1.330374 1.200603 0.019266
v -1.390965 0.795443 0.019266
v -1.390965 0.442439 0.019266
v -1.390965 0.089436 0.019266
v -1.156496 1.534139 -0.227990
v -1.326945 1.200603 -0.227990
v -1.387535 0.795443 -0.227990
v -1.387535 0.442439 -0.227990
v -1.387535 0.089436 -0.227990
vt 0.125000 0.500000
vt 0.375000 0.500000
vt 0.375000 0.750000
vt 0.125000 0.750000
vt 0.416667 0.750000
vt 0.416667 1.000000
vt 0.375000 1.000000
vt 0.458333 0.750000
vt 0.458333 1.000000
vt 0.500000 0.750000
vt 0.500000 1.000000
vt 0.541667 0.750000
vt 0.541667 1.000000
vt 0.583333 0.750000
vt 0.583333 1.000000
vt 0.416667 0.500000
vt 0.458333 0.500000
vt 0.500000 0.500000
vt 0.541667 0.500000
vt 0.583333 0.500000
vt 0.375000 0.250000
vt 0.416667 0.250000
vt 0.458333 0.250000
vt 0.500000 0.250000
vt 0.541667 0.250000
vt 0.583333 0.250000
vt 0.375000 0.000000
vt 0.416667 0.000000
vt 0.458333 0.000000
vn 0.8831 -0.4690 0.0122
vn 0.0390 -0.0039 -0.9992
vn 0.0285 -0.0099 -0.9995
vn 0.0173 -0.0026 -0.9998
vn 0.0162 -0.0031 -0.9999
vn 0.0180 -0.0065 -0.9998
vn -0.9343 -0.3561 -0.0130
vn -0.9999 0.0000 -0.0139
vn -0.9889 0.1479 -0.0137
vn -0.8904 0.4550 -0.0123
vn -0.0390 0.0039 0.9992
vn -0.0285 0.0099 0.9995
vn -0.0173 0.0026 0.9998
vn -0.0162 0.0031 0.9999
vn -0.0180 0.0065 0.9998
vn 0.9191 -0.3937 0.0127
vn 0.8284 -0.5600 0.0115
usemtl None
s off
f 98/134/77 100/135/77 99/136/77 97/137/77
f 99/136/78 120/138/78 101/139/78 97/140/78
f 120/138/79 119/141/79 102/142/79 101/139/79
f 119/141/80 118/143/80 103/144/80 102/142/80
f 118/143/81 117/145/81 104/146/81 103/144/81
f 117/145/82 116/147/82 105/148/82 104/146/82
f 100/135/83 115/149/83 120/138/83 99/136/83
f 115/149/84 114/150/84 119/141/84 120/138/84
f 114/150/84 113/151/84 118/143/84 119/141/84
f 113/151/85 112/152/85 117/145/85 118/143/85
f 112/152/86 111/153/86 116/147/86 117/145/86
f 98/154/87 110/155/87 115/149/87 100/135/87
f 110/155/88 109/156/88 114/150/88 115/149/88
f 109/156/89 108/157/89 113/151/89 114/150/89
f 108/157/90 107/158/90 112/152/90 113/151/90
f 107/158/91 106/159/91 111/153/91 112/152/91
f 97/160/92 101/161/92 110/155/92 98/154/92
f 101/161/93 102/162/93 109/156/93 110/155/93
o Cubo.002_Cubo.006
v 0.622664 0.237089 -0.006520
v 0.626094 0.237089 -0.253776
v 0.854473 -0.199717 0.006259
v 0.857903 -0.199717 -0.240997
v 0.441821 0.659234 -0.006520
v 0.190009 1.031704 -0.006520
v 0.103634 1.257905 -0.006520
v 0.043282 1.475353 -0.006520
v 0.043282 1.615410 -0.006520
v 0.046711 1.615410 -0.253776
v 0.046711 1.475353 -0.253776
v 0.107063 1.257905 -0.253776
v 0.193439 1.031704 -0.253776
v 0.445250 0.659233 -0.253776
v 0.737073 1.534139 -0.240997
v 0.907521 1.200603 -0.240997
v 0.968112 0.795443 -0.240997
v 0.968112 0.442439 -0.240997
v 0.968112 0.089436 -0.240997
v 0.733644 1.534139 0.006259
v 0.904092 1.200603 0.006259
v 0.964683 0.795443 0.006259
v 0.964683 0.442439 0.006259
v 0.964683 0.089436 0.006259
vt 0.125000 0.500000
vt 0.375000 0.500000
vt 0.375000 0.750000
vt 0.125000 0.750000
vt 0.416667 0.750000
vt 0.416667 1.000000
vt 0.375000 1.000000
vt 0.458333 0.750000
vt 0.458333 1.000000
vt 0.500000 0.750000
vt 0.500000 1.000000
vt 0.541667 0.750000
vt 0.541667 1.000000
vt 0.583333 0.750000
vt 0.583333 1.000000
vt 0.416667 0.500000
vt 0.458333 0.500000
vt 0.500000 0.500000
vt 0.541667 0.500000
vt 0.583333 0.500000
vt 0.375000 0.250000
vt 0.416667 0.250000
vt 0.458333 0.250000
vt 0.500000 0.250000
vt 0.541667 0.250000
vt 0.583333 0.250000
vt 0.375000 0.000000
vt 0.416667 0.000000
vt 0.458333 0.000000
vn -0.8831 -0.4690 -0.0122
vn -0.0390 -0.0039 0.9992
vn -0.0285 -0.0099 0.9995
vn -0.0173 -0.0026 0.9998
vn -0.0162 -0.0031 0.9999
vn -0.0180 -0.0065 0.9998
vn 0.9343 -0.3561 0.0130
vn 0.9999 0.0000 0.0139
vn 0.9889 0.1479 0.0137
vn 0.8904 0.4550 0.0123
vn 0.0390 0.0039 -0.9992
vn 0.0285 0.0099 -0.9995
vn 0.0173 0.0026 -0.9998
vn 0.0162 0.0031 -0.9999
vn 0.0180 0.0065 -0.9998
vn -0.9191 -0.3937 -0.0127
vn -0.8284 -0.5600 -0.0115
usemtl None
s off
f 122/163/94 124/164/94 123/165/94 121/166/94
f 123/165/95 144/167/95 125/168/95 121/169/95
f 144/167/96 143/170/96 126/171/96 125/168/96
f 143/170/97 142/172/97 127/173/97 126/171/97
f 142/172/98 141/174/98 128/175/98 127/173/98
f 141/174/99 140/176/99 129/177/99 128/175/99
f 124/164/100 139/178/100 144/167/100 123/165/100
f 139/178/101 138/179/101 143/170/101 144/167/101
f 138/179/101 137/180/101 142/172/101 143/170/101
f 137/180/102 136/181/102 141/174/102 142/172/102
f 136/181/103 135/182/103 140/176/103 141/174/103
f 122/183/104 134/184/104 139/178/104 124/164/104
f 134/184/105 133/185/105 138/179/105 139/178/105
f 133/185/106 132/186/106 137/180/106 138/179/106
f 132/186/107 131/187/107 136/181/107 137/180/107
f 131/187/108 130/188/108 135/182/108 136/181/108
f 121/189/109 125/190/109 134/184/109 122/183/109
f 125/190/110 126/191/110 133/185/110 134/184/110
o Torus
v -0.081222 2.929094 -0.878110
v -0.110938 2.958832 -0.925298
v -0.155218 2.972229 -0.957129
v -0.202197 2.965698 -0.965074
v -0.239286 2.940986 -0.947004
v -0.256548 2.904717 -0.907762
v -0.249357 2.866608 -0.857861
v -0.219640 2.836870 -0.810673
v -0.074031 2.890985 -0.828209
v -0.134164 2.628074 -1.068339
v -0.162462 2.665878 -1.110430
v -0.202866 2.701312 -1.128335
v -0.244550 2.724882 -1.117258
v -0.276345 2.730273 -1.080165
v -0.289732 2.716039 -1.026996
v -0.281122 2.685996 -0.971998
v -0.252824 2.648193 -0.929908
v -0.125555 2.598031 -1.013341
v -0.402321 2.411879 -1.117481
v -0.423434 2.455476 -1.158255
v -0.444208 2.506736 -1.172563
v -0.459076 2.551926 -1.156571
v -0.464055 2.578936 -1.114564
v -0.457811 2.580529 -1.057798
v -0.442017 2.556279 -1.001483
v -0.420904 2.512683 -0.960709
v -0.386527 2.387629 -1.061166
v -0.728611 2.407153 -0.996748
v -0.740981 2.450876 -1.040758
v -0.737869 2.502482 -1.063904
v -0.720108 2.548144 -1.059985
v -0.692458 2.575627 -1.030052
v -0.662328 2.577567 -0.982124
v -0.637791 2.553443 -0.929044
v -0.625421 2.509720 -0.885035
v -0.704074 2.383029 -0.943669
v -0.921897 2.616663 -0.776865
v -0.929088 2.654772 -0.826766
v -0.911826 2.691042 -0.866009
v -0.874737 2.715753 -0.884079
v -0.827758 2.722285 -0.876133
v -0.783479 2.708887 -0.844302
v -0.753762 2.679149 -0.797114
v -0.746571 2.641040 -0.747213
v -0.892181 2.586926 -0.729677
v -0.868955 2.917683 -0.586636
v -0.877564 2.947726 -0.641634
v -0.864178 2.961959 -0.694802
v -0.832383 2.956568 -0.731895
v -0.790699 2.932998 -0.742973
v -0.750295 2.897564 -0.725067
v -0.721997 2.859761 -0.682976
v -0.713387 2.829718 -0.627978
v -0.840657 2.879879 -0.544545
v -0.600798 3.133878 -0.537494
v -0.616592 3.158128 -0.593809
v -0.622836 3.156535 -0.650575
v -0.617857 3.129525 -0.692582
v -0.602989 3.084335 -0.708573
v -0.582215 3.033074 -0.694265
v -0.561102 2.989478 -0.653491
v -0.545308 2.965228 -0.597176
v -0.579685 3.090282 -0.496720
v -0.274508 3.138605 -0.658226
v -0.299046 3.162728 -0.711306
v -0.329176 3.160789 -0.759234
v -0.356826 3.133306 -0.789167
v -0.374586 3.087644 -0.793086
v -0.377698 3.036037 -0.769940
v -0.365329 2.992314 -0.725931
v -0.340791 2.968191 -0.672851
v -0.262138 3.094882 -0.614217
vt 0.500000 0.500000
vt 0.625000 0.500000
vt 0.625000 0.583333
vt 0.500000 0.583333
vt 0.625000 0.666667
vt 0.500000 0.666667
vt 0.625000 0.750000
vt 0.500000 0.750000
vt 0.625000 0.833333
vt 0.500000 0.833333
vt 0.625000 0.916667
vt 0.500000 0.916667
vt 0.625000 1.000000
vt 0.500000 1.000000
vt 0.500000 0.000000
vt 0.625000 0.000000
vt 0.625000 0.083333
vt 0.500000 0.083333
vt 0.500000 0.416667
vt 0.625000 0.416667
vt 0.750000 0.500000
vt 0.750000 0.583333
vt 0.750000 0.666667
vt 0.750000 0.750000
vt 0.750000 0.833333
vt 0.750000 0.916667
vt 0.750000 1.000000
vt 0.750000 0.000000
vt 0.750000 0.083333
vt 0.750000 0.416667
vt 0.875000 0.500000
vt 0.875000 0.583333
vt 0.875000 0.666667
vt 0.875000 0.750000
vt 0.875000 0.833333
vt 0.875000 0.916667
vt 0.875000 1.000000
vt 0.875000 0.000000
vt 0.875000 0.083333
vt 0.875000 0.416667
vt 1.000000 0.500000
vt 1.000000 0.583333
vt 1.000000 0.666667
vt 1.000000 0.750000
vt 1.000000 0.833333
vt 1.000000 0.916667
vt 1.000000 1.000000
vt 1.000000 0.000000
vt 1.000000 0.083333
vt 1.000000 0.416667
vt 0.000000 0.500000
vt 0.125000 0.500000
vt 0.125000 0.583333
vt 0.000000 0.583333
vt 0.125000 0.666667
vt 0.000000 0.666667
vt 0.125000 0.750000
vt 0.000000 0.750000
vt 0.125000 0.833333
vt 0.000000 0.833333
vt 0.125000 0.916667
vt 0.000000 0.916667
vt 0.125000 1.000000
vt 0.000000 1.000000
vt 0.000000 0.000000
vt 0.125000 0.000000
vt 0.125000 0.083333
vt 0.000000 0.083333
vt 0.000000 0.416667
vt 0.125000 0.416667
vt 0.250000 0.500000
vt 0.250000 0.583333
vt 0.250000 0.666667
vt 0.250000 0.750000
vt 0.250000 0.833333
vt 0.250000 0.916667
vt 0.250000 1.000000
vt 0.250000 0.000000
vt 0.250000 0.083333
vt 0.250000 0.416667
vt 0.375000 0.500000
vt 0.375000 0.583333
vt 0.375000 0.666667
vt 0.375000 0.750000
vt 0.375000 0.833333
vt 0.375000 0.916667
vt 0.375000 1.000000
vt 0.375000 0.000000
vt 0.375000 0.083333
vt 0.375000 0.416667
vn 0.8751 0.1390 -0.4635
vn 0.6145 0.3414 -0.7112
vn 0.0707 0.5240 -0.8488
vn -0.6239 0.4930 -0.6064
vn -0.9480 0.2716 -0.1660
vn -0.9813 0.0561 0.1843
vn -0.8751 -0.1390 0.4635
vn 0.9813 -0.0561 -0.1843
vn 0.4990 -0.4507 -0.7402
vn 0.2910 -0.1460 -0.9455
vn -0.0764 0.3102 -0.9476
vn -0.4792 0.7113 -0.5142
vn -0.6322 0.7733 0.0478
vn -0.6087 0.6523 0.4516
vn -0.4990 0.4507 0.7402
vn 0.6087 -0.6523 -0.4516
vn -0.2309 -0.7219 -0.6523
vn -0.3174 -0.3721 -0.8723
vn -0.3419 0.2115 -0.9156
vn -0.2138 0.8100 -0.5461
vn -0.0239 0.9994 -0.0254
vn 0.1212 0.9236 0.3637
vn 0.2309 0.7219 0.6523
vn -0.1212 -0.9236 -0.3637
vn -0.8299 -0.4946 -0.2582
vn -0.8206 -0.1920 -0.5384
vn -0.5672 0.2869 -0.7720
vn 0.0140 0.7300 -0.6833
vn 0.4871 0.8050 -0.3388
vn 0.7237 0.6898 -0.0211
vn 0.8299 0.4946 0.2582
vn -0.7237 -0.6898 0.0211
vn 0.0141 0.7300 -0.6833
vn -0.8205 -0.1920 -0.5384
usemtl None
s off
f 145/192/111 154/193/111 155/194/111 146/195/111
f 146/195/112 155/194/112 156/196/112 147/197/112
f 147/197/113 156/196/113 157/198/113 148/199/113
f 148/199/114 157/198/114 158/200/114 149/201/114
f 149/201/115 158/200/115 159/202/115 150/203/115
f 150/203/116 159/202/116 160/204/116 151/205/116
f 151/206/117 160/207/117 161/208/117 152/209/117
f 153/210/118 162/211/118 154/193/118 145/192/118
f 154/193/119 163/212/119 164/213/119 155/194/119
f 155/194/120 164/213/120 165/214/120 156/196/120
f 156/196/121 165/214/121 166/215/121 157/198/121
f 157/198/122 166/215/122 167/216/122 158/200/122
f 158/200/123 167/216/123 168/217/123 159/202/123
f 159/202/124 168/217/124 169/218/124 160/204/124
f 160/207/125 169/219/125 170/220/125 161/208/125
f 162/211/126 171/221/126 163/212/126 154/193/126
f 163/212/127 172/222/127 173/223/127 164/213/127
f 164/213/128 173/223/128 174/224/128 165/214/128
f 165/214/129 174/224/129 175/225/129 166/215/129
f 166/215/130 175/225/130 176/226/130 167/216/130
f 167/216/131 176/226/131 177/227/131 168/217/131
f 168/217/132 177/227/132 178/228/132 169/218/132
f 169/219/133 178/229/133 179/230/133 170/220/133
f 171/221/134 180/231/134 172/222/134 163/212/134
f 172/222/135 181/232/135 182/233/135 173/223/135
f 173/223/136 182/233/136 183/234/136 174/224/136
f 174/224/137 183/234/137 184/235/137 175/225/137
f 175/225/138 184/235/138 185/236/138 176/226/138
f 176/226/139 185/236/139 186/237/139 177/227/139
f 177/227/140 186/237/140 187/238/140 178/228/140
f 178/229/141 187/239/141 188/240/141 179/230/141
f 180/231/142 189/241/142 181/232/142 172/222/142
f 181/242/116 190/243/116 191/244/116 182/245/116
f 182/245/115 191/244/115 192/246/115 183/247/115
f 183/247/114 192/246/114 193/248/114 184/249/114
f 184/249/113 193/248/113 194/250/113 185/251/113
f 185/251/112 194/250/112 195/252/112 186/253/112
f 186/253/111 195/252/111 196/254/111 187/255/111
f 187/256/118 196/257/118 197/258/118 188/259/118
f 189/260/117 198/261/117 190/243/117 181/242/117
f 190/243/124 199/262/124 200/263/124 191/244/124
f 191/244/123 200/263/123 201/264/123 192/246/123
f 192/246/122 201/264/122 202/265/122 193/248/122
f 193/248/121 202/265/121 203/266/121 194/250/121
f 194/250/120 203/266/120 204/267/120 195/252/120
f 195/252/119 204/267/119 205/268/119 196/254/119
f 196/257/126 205/269/126 206/270/126 197/258/126
f 198/261/125 207/271/125 199/262/125 190/243/125
f 199/262/132 208/272/132 209/273/132 200/263/132
f 200/263/131 209/273/131 210/274/131 201/264/131
f 201/264/130 210/274/130 211/275/130 202/265/130
f 202/265/129 211/275/129 212/276/129 203/266/129
f 203/266/128 212/276/128 213/277/128 204/267/128
f 204/267/127 213/277/127 214/278/127 205/268/127
f 205/269/134 214/279/134 215/280/134 206/270/134
f 207/271/133 216/281/133 208/272/133 199/262/133
f 208/272/140 145/192/140 146/195/140 209/273/140
f 209/273/139 146/195/139 147/197/139 210/274/139
f 210/274/143 147/197/143 148/199/143 211/275/143
f 211/275/137 148/199/137 149/201/137 212/276/137
f 212/276/144 149/201/144 150/203/144 213/277/144
f 213/277/135 150/203/135 151/205/135 214/278/135
f 214/279/142 151/206/142 152/209/142 215/280/142
f 216/281/141 153/210/141 145/192/141 208/272/141
